# Blender 4.5.1 LTS
# www.blender.org
o SteeringWheel
v -0.012261 0.001230 -0.061379
v -0.023504 0.001155 -0.057969
v -0.033867 0.001034 -0.052432
v -0.042949 0.000870 -0.044980
v -0.050403 0.000670 -0.035900
v -0.055941 0.000443 -0.025540
v -0.059352 0.000196 -0.014299
v -0.060504 -0.000061 -0.002609
v -0.059352 -0.000318 0.009081
v -0.055941 -0.000565 0.020322
v -0.050403 -0.000793 0.030681
v -0.042949 -0.000992 0.039761
v -0.033867 -0.001156 0.047213
v -0.023504 -0.001278 0.052751
v -0.012261 -0.001353 0.056161
v -0.000568 -0.001378 0.057312
v 0.011125 -0.001353 0.056161
v 0.022368 -0.001278 0.052751
v 0.032731 -0.001156 0.047213
v 0.041813 -0.000992 0.039761
v 0.049267 -0.000793 0.030681
v 0.054805 -0.000565 0.020322
v 0.058216 -0.000318 0.009081
v 0.059368 -0.000061 -0.002609
v 0.058216 0.000196 -0.014299
v 0.054805 0.000443 -0.025540
v 0.049267 0.000670 -0.035900
v 0.041813 0.000870 -0.044980
v 0.032731 0.001034 -0.052432
v 0.022368 0.001155 -0.057969
v 0.011125 0.001230 -0.061379
v -0.000568 0.001256 -0.062531
v -0.012261 -0.004185 0.058160
v -0.023504 -0.004110 0.054750
v -0.033867 -0.003988 0.049212
v -0.042949 -0.003825 0.041760
v -0.050403 -0.003625 0.032680
v -0.055941 -0.003397 0.022320
v -0.059352 -0.003150 0.011080
v -0.060504 -0.002893 -0.000610
v -0.059352 -0.002636 -0.012300
v -0.055941 -0.002389 -0.023541
v -0.050403 -0.002162 -0.033901
v -0.042949 -0.001962 -0.042981
v -0.033867 -0.001798 -0.050433
v -0.023504 -0.001677 -0.055970
v -0.012261 -0.001602 -0.059380
v -0.000568 -0.001576 -0.060532
v 0.011125 -0.001602 -0.059380
v 0.022368 -0.001677 -0.055970
v 0.032731 -0.001798 -0.050433
v 0.041813 -0.001962 -0.042981
v 0.049267 -0.002162 -0.033901
v 0.054805 -0.002389 -0.023541
v 0.058216 -0.002636 -0.012300
v 0.059368 -0.002893 -0.000610
v 0.058216 -0.003150 0.011080
v 0.054805 -0.003397 0.022320
v 0.049267 -0.003625 0.032680
v 0.041813 -0.003825 0.041760
v 0.032731 -0.003988 0.049212
v 0.022368 -0.004110 0.054750
v 0.011125 -0.004185 0.058160
v -0.000568 -0.004210 0.059311
vn -0.0000 0.9998 0.0220
vn -0.0000 -0.9998 -0.0220
vn -0.0000 -0.9998 -0.0219
vt 0.756981 0.040138
vt 0.701868 0.122621
vt 0.803703 0.275028
vt 0.905914 0.252222
vt 0.957146 0.167274
vt 0.848357 0.019750
vt 0.828989 0.277518
vt 0.854275 0.275028
vt 0.878589 0.267652
vt 0.900998 0.255675
vt 0.920639 0.239556
vt 0.956110 0.173193
vt 0.936757 0.219915
vt 0.948735 0.197507
vt 0.958601 0.147906
vt 0.936757 0.075898
vt 0.956110 0.122621
vt 0.948735 0.098306
vt 0.920639 0.056257
vt 0.900998 0.040138
vt 0.878589 0.028161
vt 0.854275 0.020785
vt 0.828989 0.018295
vt 0.803703 0.020785
vt 0.779389 0.028161
vt 0.737340 0.056257
vt 0.721221 0.075898
vt 0.709243 0.098306
vt 0.699377 0.147907
vt 0.701868 0.173193
vt 0.709243 0.197507
vt 0.721221 0.219915
vt 0.737340 0.239556
vt 0.756981 0.255675
vt 0.779389 0.267652
vt 0.822983 0.018434
vt 0.797839 0.022093
vt 0.773893 0.030588
vt 0.752064 0.043591
vt 0.733191 0.060602
vt 0.700832 0.128538
vt 0.718000 0.080969
vt 0.707073 0.103908
vt 0.699516 0.153913
vt 0.724673 0.224832
vt 0.703176 0.179056
vt 0.711670 0.203003
vt 0.741685 0.243704
vt 0.762052 0.258896
vt 0.784991 0.269822
vt 0.809621 0.276063
vt 0.834995 0.277379
vt 0.860139 0.273720
vt 0.884085 0.265225
vt 0.924787 0.235210
vt 0.939979 0.214844
vt 0.950905 0.191904
vt 0.958462 0.141900
vt 0.954802 0.116757
vt 0.946308 0.092810
vt 0.933305 0.070981
vt 0.916293 0.052108
vt 0.895926 0.036917
vt 0.872987 0.025991
s 1
f 19/1/1 23/2/1 31/3/1
f 51/4/2 55/5/2 63/6/2
f 31/3/1 32/7/1 1/8/1
f 1/8/1 2/9/1 3/10/1
f 3/10/1 4/11/1 7/12/1
f 4/11/1 5/13/1 7/12/1
f 5/13/1 6/14/1 7/12/1
f 7/12/1 8/15/1 11/16/1
f 8/15/1 9/17/1 11/16/1
f 9/17/1 10/18/1 11/16/1
f 11/16/1 12/19/1 13/20/1
f 13/20/1 14/21/1 15/22/1
f 15/22/1 16/23/1 19/1/1
f 16/23/1 17/24/1 19/1/1
f 17/24/1 18/25/1 19/1/1
f 19/1/1 20/26/1 21/27/1
f 21/27/1 22/28/1 23/2/1
f 23/2/1 24/29/1 25/30/1
f 25/30/1 26/31/1 27/32/1
f 27/32/1 28/33/1 31/3/1
f 28/33/1 29/34/1 31/3/1
f 29/34/1 30/35/1 31/3/1
f 31/3/1 1/8/1 7/12/1
f 1/8/1 3/10/1 7/12/1
f 11/16/1 13/20/1 15/22/1
f 19/1/1 21/27/1 23/2/1
f 23/2/1 25/30/1 31/3/1
f 25/30/1 27/32/1 31/3/1
f 7/12/1 11/16/1 31/3/1
f 11/16/1 15/22/1 31/3/1
f 15/22/1 19/1/1 31/3/1
f 63/6/2 64/36/2 33/37/2
f 33/37/2 34/38/2 35/39/2
f 35/39/2 36/40/2 39/41/2
f 36/40/2 37/42/2 39/41/2
f 37/42/2 38/43/2 39/41/2
f 39/41/2 40/44/2 43/45/2
f 40/44/2 41/46/2 43/45/2
f 41/46/2 42/47/2 43/45/2
f 43/45/2 44/48/2 45/49/2
f 45/49/2 46/50/2 47/51/2
f 47/51/2 48/52/2 51/4/2
f 48/52/2 49/53/3 51/4/2
f 49/53/3 50/54/2 51/4/2
f 51/4/2 52/55/2 53/56/2
f 53/56/2 54/57/2 55/5/2
f 55/5/2 56/58/2 57/59/2
f 57/59/2 58/60/2 59/61/2
f 59/61/2 60/62/2 63/6/2
f 60/62/2 61/63/2 63/6/2
f 61/63/2 62/64/2 63/6/2
f 63/6/2 33/37/2 39/41/2
f 33/37/2 35/39/2 39/41/2
f 43/45/2 45/49/2 47/51/2
f 51/4/2 53/56/2 55/5/2
f 55/5/2 57/59/2 63/6/2
f 57/59/2 59/61/2 63/6/2
f 39/41/2 43/45/2 63/6/2
f 43/45/2 47/51/2 63/6/2
f 47/51/2 51/4/2 63/6/2
