# Blender 4.5.1 LTS
# www.blender.org
o Wheel
v -0.025466 -0.014041 -0.130950
v 0.039684 -0.037452 -0.110452
v 0.040511 -0.024099 -0.024156
v 0.024924 -0.049909 -0.122966
v 0.038915 -0.086669 -0.081043
v -0.025152 -0.075292 -0.109253
v -0.037398 -0.092636 -0.080112
v -0.025059 -0.117097 -0.060203
v 0.023037 -0.107690 -0.077698
v 0.038709 -0.121520 0.003657
v 0.026452 -0.129841 -0.021688
v 0.040511 -0.033200 0.006880
v -0.025059 -0.131286 -0.010686
v -0.026380 -0.125995 0.036145
v 0.024863 -0.123377 0.049261
v -0.024119 -0.107543 0.078263
v -0.041681 -0.101541 0.048848
v 0.040511 -0.009903 0.033782
v 0.025178 -0.084503 0.101331
v -0.024632 -0.060686 0.117392
v 0.039749 -0.065723 0.100585
v -0.032561 -0.021241 0.127073
v 0.024339 -0.027085 0.130487
v 0.031801 0.032997 0.125752
v -0.025059 0.015247 0.131384
v 0.040511 0.032027 0.017192
v -0.025059 0.064301 0.115671
v 0.024863 0.092905 0.095696
v -0.031546 0.127629 0.028006
v -0.040041 0.099924 0.060580
v -0.026741 0.107778 0.076737
v 0.025386 0.130391 0.027485
v -0.024119 0.129756 -0.030620
v 0.024344 0.127091 -0.036713
v 0.040511 0.018380 -0.031196
v 0.025178 0.103154 -0.082407
v -0.023619 0.047277 -0.124392
v -0.025933 0.096009 -0.091050
v 0.024344 0.063832 -0.115565
v -0.037210 0.047003 -0.112583
v 0.025178 0.014596 -0.130950
v -0.039626 -0.117655 -0.003384
v -0.039576 0.054806 0.106368
v -0.041502 -0.075893 -0.069567
v -0.039587 -0.062103 0.100483
v -0.039644 -0.021718 -0.115333
v -0.040262 0.104149 -0.057833
v -0.038768 -0.016706 -0.085530
v -0.021654 -0.000099 -0.081260
v -0.037023 -0.057961 -0.062804
v -0.021745 -0.045312 -0.067322
v -0.036614 -0.079414 -0.031112
v -0.021690 -0.074965 -0.030946
v -0.038205 -0.083947 0.025154
v -0.021682 -0.078624 0.024156
v -0.038563 -0.043099 0.076721
v -0.021881 -0.044977 0.067950
v -0.038834 0.009511 0.087297
v -0.021592 -0.007646 0.080672
v -0.039858 0.082318 0.041147
v -0.036820 0.051291 0.068878
v -0.021798 0.039073 0.072802
v -0.024689 0.070595 0.038949
v -0.039088 0.078558 -0.038194
v -0.036830 0.085946 -0.001063
v -0.021723 0.082174 -0.007845
v -0.038495 0.041679 -0.077462
v -0.021664 0.052584 -0.063514
v 0.039025 0.114521 0.034846
v 0.039605 0.072548 0.092024
v 0.039315 0.107408 -0.052475
v 0.038817 0.038399 -0.113665
v 0.097117 0.024654 0.024597
v 0.097117 -0.033284 0.010402
v 0.097117 -0.006382 0.033699
v 0.097117 -0.021713 -0.026574
v 0.097117 0.033310 -0.010923
v 0.097117 0.009182 -0.032418
vn -0.4069 0.6603 -0.6312
vn -0.6686 0.2851 -0.6868
vn -0.8772 0.4228 -0.2274
vn -0.9184 0.3929 0.0458
vn -0.3843 0.9002 -0.2049
vn -0.9418 0.0046 0.3361
vn -0.8927 0.1979 0.4049
vn -0.9989 0.0236 0.0393
vn -0.7619 0.4989 0.4131
vn -0.9298 0.3121 0.1950
vn -0.5605 -0.8157 -0.1429
vn -0.3192 -0.9454 -0.0666
vn -0.3047 -0.9488 0.0833
vn 0.7468 0.4942 0.4450
vn 0.7316 0.4352 0.5247
vn 0.6987 0.6752 0.2365
vn -0.6388 0.2448 -0.7294
vn -0.4207 -0.6908 -0.5880
vn -0.0596 -0.5922 -0.8036
vn -0.0738 -0.8761 -0.4764
vn 0.3802 -0.3509 -0.8558
vn 0.7379 -0.1843 -0.6493
vn 0.6597 -0.5359 -0.5268
vn -0.7165 -0.0504 -0.6958
vn -0.9053 -0.4245 -0.0159
vn -0.7043 -0.7041 -0.0908
vn -0.7638 -0.6193 0.1818
vn 0.6824 0.2393 -0.6907
vn 0.4029 0.0652 -0.9129
vn 0.3912 0.4741 -0.7888
vn 0.7723 0.4597 -0.4385
vn 0.7343 0.6723 0.0936
vn 0.6949 0.6476 -0.3127
vn 0.7403 0.6611 -0.1224
vn -0.9593 0.1491 0.2398
vn -0.9986 0.0314 0.0435
vn -0.9995 -0.0271 -0.0138
vn 0.3566 -0.7632 -0.5388
vn -0.2703 0.7552 -0.5972
vn -0.2380 0.7676 -0.5952
vn -0.2255 0.7721 -0.5942
vn -0.9960 0.0759 -0.0472
vn -0.9942 0.0879 -0.0625
vn -0.9990 0.0310 -0.0311
vn -0.0935 -0.7264 0.6808
vn -0.3916 0.7447 0.5405
vn -0.2869 0.7534 0.5917
vn -0.2316 0.7539 0.6149
vn -0.3025 0.1192 -0.9457
vn -0.3595 0.2716 -0.8927
vn -0.3530 -0.0990 -0.9304
vn -0.0220 -0.1121 -0.9935
vn 0.0610 0.2660 0.9621
vn 0.0006 0.1045 0.9945
vn 0.4225 -0.1716 0.8900
vn -0.0229 -0.4510 0.8923
vn 0.3684 -0.6185 0.6941
vn 0.0322 0.6916 0.7215
vn 0.0071 0.4789 0.8778
vn -0.0768 -0.1740 0.9818
vn 0.0836 -0.9902 -0.1118
vn 0.0173 0.9593 -0.2817
vn 0.0054 0.9763 0.2162
vn 0.0659 -0.9432 0.3257
vn 0.0077 -0.9980 -0.0624
vn -0.0109 0.8308 0.5565
vn -0.0454 0.9760 0.2130
vn -0.0142 0.3490 -0.9370
vn -0.0023 -0.8014 0.5982
vn 0.0010 0.7907 -0.6122
vn -1.0000 0.0003 0.0006
vn -1.0000 -0.0061 0.0010
vn -0.9996 -0.0199 -0.0192
vn -0.0545 0.3389 0.9392
vn -0.0402 0.3177 0.9474
vn -0.0735 0.3669 0.9273
vn 0.0204 -0.9574 -0.2879
vn 0.0237 -0.9559 -0.2928
vn 0.0161 -0.9595 -0.2814
vn -0.7949 -0.2763 -0.5401
vn -0.9394 -0.2630 -0.2198
vn -0.9052 -0.0866 -0.4160
vn -0.2994 0.9517 0.0673
vn -0.0564 0.9954 0.0770
vn -0.2876 0.9553 0.0688
vn -0.4316 -0.6683 -0.6059
vn -0.5420 -0.5889 -0.5995
vn -0.5126 -0.6119 -0.6024
vn 0.8698 -0.2609 0.4187
vn -0.9717 0.1895 0.1409
vn 0.9579 0.0039 0.2871
vn 0.9981 0.0115 0.0607
vn -0.6177 -0.7785 -0.1112
vn -0.7021 -0.2997 0.6460
vn -0.6853 -0.4398 0.5804
vn -0.6771 -0.3793 0.6306
vn 0.6879 0.3875 0.6136
vn 0.8059 -0.5463 -0.2281
vn -0.4649 0.2617 0.8458
vn -0.4026 0.3089 0.8617
vn -0.2128 0.4314 0.8767
vn -0.7837 -0.5858 -0.2067
vn 0.9063 -0.4216 0.0288
vn -0.5007 -0.2764 0.8203
vn -0.4376 -0.2548 0.8623
vn -0.1882 -0.1639 0.9684
vn -0.1824 -0.3461 -0.9203
vn 0.9365 -0.1783 -0.3021
vn -0.7725 -0.5655 0.2890
vn 0.9999 0.0114 0.0037
vn 1.0000 -0.0011 0.0094
vn -1.0000 -0.0048 -0.0060
vn -0.9994 -0.0020 -0.0336
vn 0.9999 -0.0133 -0.0073
vn 0.9919 -0.1158 0.0531
vn 0.9998 -0.0198 -0.0062
vn -0.9992 -0.0383 0.0068
vn 0.9999 0.0079 -0.0112
vn 0.9999 0.0131 -0.0075
vn 1.0000 -0.0000 -0.0000
vn 0.0122 -0.6921 0.7217
vn -0.0122 -0.7217 0.6921
vn -0.0418 -0.7553 0.6541
vn -0.0447 -0.1765 -0.9833
vn -0.0352 -0.1634 -0.9859
vn -0.0405 -0.1707 -0.9845
vn -1.0000 0.0022 -0.0012
vn -0.9998 0.0125 -0.0142
vn -1.0000 0.0011 0.0008
vn -0.9953 0.0118 0.0960
vn -0.9955 -0.0720 -0.0612
vn -1.0000 0.0002 -0.0012
vn -1.0000 0.0033 0.0042
vn -0.4008 -0.6873 -0.6058
vn 0.8511 -0.4542 0.2634
vn -0.7713 0.1130 0.6263
vn -0.6617 0.3765 0.6483
vn -0.9946 0.0391 -0.0962
vn 0.4227 -0.9016 0.0916
vn -0.5363 -0.7455 0.3957
vn -0.4718 -0.8023 0.3656
vn -0.2783 0.7519 -0.5976
vn -0.7625 -0.5124 0.3950
vn -0.4584 0.7332 0.5023
vn -0.4182 0.2959 -0.8588
vn -0.0108 -0.9717 0.2360
vn -0.0161 0.2814 0.9595
vn 0.0275 -0.9540 -0.2985
vn -0.1348 0.4737 0.8703
vn -0.1141 -0.1355 0.9842
vn -0.2858 0.9562 0.0635
vn -0.0855 -0.3985 -0.9132
vn 0.8156 -0.5358 -0.2185
vn 0.0703 0.9941 0.0821
vn -0.9897 -0.0643 0.1282
vn 0.9999 -0.0169 -0.0008
vn 0.9999 -0.0050 -0.0114
vn 0.9998 0.0099 -0.0181
vn 0.9998 0.0175 0.0022
vn -0.1548 0.9509 -0.2682
vn 0.0916 0.6624 -0.7435
vn 0.0418 -0.6541 0.7553
vn -0.0513 -0.1856 -0.9813
vn 0.0951 0.9672 0.2357
vt 0.357018 0.564737
vt 0.308764 0.522803
vt 0.388838 0.522803
vt 0.465967 0.561907
vt 0.418079 0.576537
vt 0.779976 0.286149
vt 0.731950 0.298717
vt 0.817916 0.304377
vt 0.516021 0.565307
vt 0.503889 0.522803
vt 0.572491 0.522803
vt 0.722420 0.351802
vt 0.714478 0.380107
vt 0.717072 0.384149
vt 0.707798 0.312978
vt 0.722653 0.314238
vt 0.694643 0.354829
vt 0.304971 0.576612
vt 0.891709 0.522803
vt 0.922658 0.565879
vt 0.865078 0.566214
vt 0.808206 0.461579
vt 0.797610 0.452243
vt 0.832721 0.433000
vt 0.263389 0.565544
vt 0.811516 0.522803
vt 0.820012 0.564887
vt 0.776069 0.563959
vt 0.747189 0.454415
vt 0.763129 0.469394
vt 0.728752 0.458966
vt 0.700983 0.436176
vt 0.682644 0.359474
vt 0.701070 0.413178
vt 0.683680 0.403280
vt 0.812050 0.422574
vt 0.783053 0.437643
vt 0.824282 0.425837
vt 0.844081 0.435254
vt 0.825257 0.362944
vt 0.800490 0.327386
vt 0.803608 0.332173
vt 0.828635 0.361741
vt 0.845416 0.338080
vt 0.737170 0.421404
vt 0.718345 0.405604
vt 0.743882 0.429909
vt 0.803631 0.424928
vt 0.825833 0.399000
vt 0.823892 0.400043
vt 0.778044 0.322409
vt 0.764467 0.319352
vt 0.944838 0.716247
vt 0.979833 0.565544
vt 0.990847 0.715826
vt 0.881409 0.694758
vt 0.593150 0.715547
vt 0.614871 0.566214
vt 0.649478 0.715593
vt 0.683672 0.564432
vt 0.706989 0.715826
vt 0.536710 0.715769
vt 0.570098 0.566051
vt 0.645442 0.549861
vt 0.827992 0.721531
vt 0.412619 0.717180
vt 0.468402 0.718659
vt 0.764178 0.716193
vt 0.274916 0.715826
vt 0.320352 0.718785
vt 0.736562 0.576980
vt 0.365797 0.715826
vt 0.772647 0.434613
vt 0.778467 0.357069
vt 0.756536 0.362190
vt 0.753726 0.367893
vt 0.787771 0.393347
vt 0.792864 0.371489
vt 0.793918 0.373473
vt 0.967992 0.522803
vt 0.680006 0.367852
vt 0.697556 0.419500
vt 0.700616 0.335623
vt 0.737313 0.331394
vt 0.716068 0.351340
vt 0.830562 0.306598
vt 0.814241 0.311855
vt 0.789244 0.288071
vt 0.749368 0.292613
vt 0.693165 0.522803
vt 0.862120 0.393457
vt 0.745919 0.329826
vt 0.752220 0.522803
vt 0.859499 0.381808
vt 0.852239 0.375925
vt 0.787843 0.465302
vt 0.761597 0.395629
vt 0.776439 0.355973
vt 0.786019 0.394621
vt 0.766250 0.399453
vt 0.751533 0.384651
vt 0.856665 0.343260
vt 0.840954 0.438124
vt 0.736916 0.463434
vt 0.264274 0.522803
s 1
f 38/1/1 40/2/2 47/3/3
f 47/3/3 29/4/4 33/5/5
f 22/6/6 43/7/7 45/8/8
f 31/9/9 30/10/10 43/11/7
f 31/9/9 29/4/4 30/10/10
f 63/12/11 65/13/12 66/14/13
f 28/15/14 70/16/15 69/17/16
f 37/18/17 40/2/2 38/1/1
f 7/19/18 6/20/19 8/21/20
f 4/22/21 2/23/22 5/24/23
f 1/25/24 40/2/2 37/18/17
f 42/26/25 13/27/26 14/28/27
f 72/29/28 41/30/29 39/31/30
f 36/32/31 72/29/28 39/31/30
f 41/30/29 2/23/22 4/22/21
f 32/33/32 71/34/33 34/35/34
f 50/36/35 48/37/36 44/38/37
f 4/22/21 5/24/23 9/39/38
f 55/40/39 56/41/40 57/42/41
f 54/43/42 17/44/43 56/41/44
f 68/45/45 64/46/45 67/47/45
f 51/48/46 52/49/47 53/50/48
f 59/51/49 56/41/50 58/52/51
f 4/53/21 1/54/52 41/55/29
f 9/56/38 6/20/19 4/53/21
f 24/57/53 25/58/54 23/59/55
f 23/59/55 20/60/56 19/61/57
f 28/62/58 27/63/59 24/57/53
f 22/64/60 23/59/55 25/58/54
f 11/65/61 8/21/20 9/56/38
f 34/66/62 33/5/5 32/67/63
f 15/68/64 13/27/65 11/65/61
f 31/9/66 32/67/63 29/4/67
f 41/69/29 37/18/68 39/70/30
f 19/61/57 16/71/69 15/68/64
f 39/70/30 38/1/1 36/72/70
f 36/72/70 33/5/5 34/66/62
f 49/73/71 59/51/72 66/14/73
f 18/74/74 73/75/75 26/76/76
f 3/77/77 74/78/78 12/79/79
f 6/20/80 7/19/81 46/80/82
f 29/81/4 47/82/3 30/83/10
f 55/40/83 52/49/84 54/43/85
f 71/34/33 36/32/31 34/35/34
f 61/84/86 60/85/87 63/12/88
f 19/86/57 21/87/89 23/88/55
f 50/36/35 44/38/37 52/49/90
f 24/89/91 21/87/89 70/16/92
f 63/12/11 60/85/93 65/13/12
f 22/64/94 45/90/95 20/60/96
f 47/3/3 33/5/5 38/1/1
f 28/15/14 24/89/97 70/16/15
f 5/24/23 11/91/98 9/39/38
f 49/73/99 48/37/100 51/48/101
f 42/26/25 8/21/102 13/27/26
f 65/13/103 60/85/103 64/46/103
f 68/45/104 67/47/105 49/73/106
f 59/51/49 58/52/51 62/92/107
f 61/84/108 58/52/108 60/85/108
f 14/28/27 17/93/109 42/26/25
f 44/38/37 42/94/25 54/43/42
f 26/76/110 70/16/92 18/74/111
f 43/7/7 60/85/112 58/52/113
f 58/52/113 45/8/8 43/7/7
f 3/77/114 10/95/115 5/24/116
f 64/46/117 30/83/10 47/82/3
f 46/96/82 44/38/37 48/37/36
f 18/74/111 70/16/92 21/87/89
f 35/97/118 71/34/119 26/76/110
f 75/98/120 74/78/120 76/99/120
f 74/78/121 18/74/122 12/79/123
f 73/75/120 76/99/120 78/100/120
f 76/99/124 3/77/125 35/97/126
f 55/40/127 57/42/128 59/51/72
f 53/50/129 55/40/127 59/51/72
f 62/92/130 63/12/131 59/51/72
f 63/12/131 66/14/73 59/51/72
f 68/45/132 49/73/71 66/14/73
f 49/73/71 51/48/133 53/50/129
f 78/100/120 77/101/120 73/75/120
f 63/12/88 62/92/134 61/84/86
f 19/86/57 15/102/135 21/87/89
f 7/103/81 42/94/25 44/38/37
f 1/54/24 6/20/80 46/80/82
f 25/58/136 43/11/7 22/64/6
f 25/58/136 27/63/137 43/11/7
f 27/63/137 31/9/9 43/11/7
f 40/104/138 46/96/82 47/82/3
f 1/25/24 46/105/82 40/2/2
f 15/102/64 11/91/61 10/95/139
f 36/32/31 71/34/33 72/29/28
f 68/45/140 66/14/13 64/46/141
f 41/30/29 72/29/28 2/23/22
f 32/33/32 69/17/16 71/34/33
f 55/40/39 54/43/142 56/41/40
f 16/71/143 20/60/96 45/90/95
f 51/48/46 50/36/144 52/49/47
f 46/96/82 7/103/81 44/38/37
f 59/51/49 57/42/145 56/41/50
f 41/69/29 1/25/52 37/18/68
f 23/59/55 22/64/60 20/60/56
f 19/61/57 20/60/56 16/71/69
f 15/68/64 16/71/69 14/28/146
f 9/56/38 8/21/20 6/20/19
f 11/65/61 13/27/65 8/21/20
f 4/53/21 6/20/19 1/54/52
f 15/68/64 14/28/146 13/27/65
f 31/9/66 28/62/58 32/67/63
f 24/57/53 27/63/59 25/58/54
f 28/62/58 31/9/66 27/63/59
f 32/67/63 33/5/5 29/4/67
f 39/70/30 37/18/68 38/1/1
f 36/72/70 38/1/1 33/5/5
f 49/73/71 53/50/129 59/51/72
f 18/74/74 75/98/147 73/75/75
f 3/77/77 76/99/148 74/78/78
f 51/48/101 48/37/100 50/36/149
f 49/73/106 67/47/105 48/37/150
f 55/40/83 53/50/151 52/49/84
f 23/88/55 21/87/89 24/89/91
f 66/14/13 65/13/12 64/46/141
f 14/28/27 16/71/143 17/93/109
f 62/92/107 58/52/51 61/84/152
f 10/95/115 21/87/89 15/102/135
f 16/71/143 45/90/95 17/93/109
f 5/24/23 10/95/153 11/91/98
f 42/26/25 7/19/81 8/21/102
f 44/38/154 54/43/85 52/49/84
f 32/33/32 28/15/14 69/17/16
f 67/47/155 64/46/117 47/82/3
f 43/7/7 30/83/10 60/85/112
f 58/52/113 56/41/44 45/8/8
f 3/77/114 12/79/156 10/95/115
f 3/77/114 5/24/116 2/23/157
f 12/79/156 18/74/111 21/87/89
f 64/46/117 60/85/112 30/83/10
f 47/82/3 46/96/82 67/47/155
f 35/97/118 2/23/157 72/29/158
f 35/97/118 72/29/158 71/34/119
f 69/17/159 70/16/92 26/76/110
f 26/76/110 71/34/119 69/17/159
f 12/79/156 21/87/89 10/95/115
f 17/44/43 54/43/42 42/94/25
f 56/41/44 17/44/43 45/8/8
f 35/97/160 26/76/160 77/101/160
f 77/101/161 78/100/161 35/97/161
f 73/75/120 75/98/120 76/99/120
f 74/78/121 75/98/162 18/74/122
f 78/100/163 76/99/124 35/97/126
f 73/75/164 77/101/164 26/76/164
f 48/37/36 67/47/155 46/96/82
f 35/97/118 3/77/114 2/23/157
